            <svg width="210" height="45" viewBox="0 0 210 45" fill="none" xmlns="http://www.w3.org/2000/svg">
              <path d="M7.47706 1.09863e-06C2.93578 3.366 -1.11991e-06 8.703 -1.11991e-06 14.706C-1.11991e-06 16.164 0.174311 17.586 0.504586 18.954C4.3578 20.673 8.59633 21.699 13.0642 21.87L13.1284 21.897C13.1284 21.888 13.1376 21.879 13.1376 21.87C14.1376 19.62 14.6972 17.127 14.6972 14.508C14.6972 8.622 11.8716 3.375 7.47706 1.09863e-06Z"
                transform="translate(19.0459 23.103)" fill="white" />
              <path d="M7.88073 5.49316e-07L2.10092 0.611999L-1.11991e-06 3.015L4.72477 1.206C6.66972 0.441 7.88073 5.49316e-07 7.88073 5.49316e-07Z"
                transform="translate(25.3303 16.794)" fill="white" />
              <path d="M5.78899 30.321C6.6422 29.547 7.68807 28.755 8.86239 27.963C10.7706 26.622 12.7615 25.488 14.7615 24.516C17.7982 22.923 21.0367 21.438 23.945 20.178C26.2569 15.669 30.422 12.231 35.4679 10.827L36 6.606C29.2569 9.18 22.8991 10.791 17.211 10.791C17.1651 10.791 17.1193 10.791 17.0734 10.791C17.0734 10.791 16.9725 8.352 19.8349 8.352C22.6881 8.352 24.5413 9.594 24.5413 9.594C24.5413 9.594 24.0092 8.163 22.0642 6.795C20.0459 5.58 17.6606 4.878 15.1193 4.878C11.6239 4.878 8.44037 6.201 6.06422 8.361C3.88991 6.192 2.47706 3.258 2.27523 -4.29153e-09C0.807339 3.69 6.99944e-08 7.704 6.99944e-08 11.898C0.00917438 18.729 2.13761 25.074 5.78899 30.321Z"
                transform="translate(0 0.34198)" fill="white" />
              <path d="M1.54128 7.452C2.47706 6.705 3.50459 6.084 4.58716 5.589C3.34862 4.347 2.3211 2.394 1.42202 0C1.42202 0 0.311927 2.484 1.39989e-07 5.229C0.431193 6.021 0.944954 6.768 1.54128 7.452Z"
                transform="translate(4.60553)" fill="white" />
              <path d="M0 2.65024e-08H7.57746V12.4498H19.0282V2.65024e-08H26.5493V30.7633H19.0282V18.5358H7.57746V30.7633H0V2.65024e-08Z"
                transform="translate(43 8.5976)" fill="white" />
              <path d="M4.01408 27.9982C1.33803 25.3165 -8.5965e-07 21.3286 -8.5965e-07 16.0069C-8.5965e-07 10.7824 1.30986 6.80849 3.94366 4.08509C6.57746 1.3617 10.338 0 15.1972 0C19.9718 0 23.7042 1.33391 26.3944 3.98783C29.0845 6.64175 30.4366 10.6435 30.4366 15.9513C30.4366 21.1758 29.1127 25.1636 26.493 27.9009C23.8592 30.6382 20.0986 31.9999 15.1972 31.9999C10.4225 32.0138 6.70422 30.6799 4.01408 27.9982ZM20.7606 23.5657C22 22.0234 22.6338 19.4945 22.6338 15.9513C22.6338 12.422 22.0141 9.87926 20.7887 8.36471C19.5634 6.83628 17.6901 6.08595 15.1972 6.08595C12.7324 6.08595 10.8873 6.85017 9.66197 8.3925C8.43662 9.93483 7.8169 12.4776 7.8169 16.0486C7.8169 19.5501 8.43662 22.0651 9.66197 23.5935C10.8873 25.1219 12.7465 25.8723 15.1972 25.8723C17.662 25.8723 19.507 25.108 20.7606 23.5657Z"
                transform="translate(74.8874 8)" fill="white" />
              <path d="M44.8873 2.65024e-08L36.1409 30.7633H28.662L22.4366 10.7963L16.2254 30.7633H8.74648L-1.7193e-06 2.65024e-08H8.28169L13.1831 21.4954L19.493 2.65024e-08H25.338L31.6901 21.5371L36.6056 2.65024e-08H44.8873Z"
                transform="translate(106.634 8.5976)" fill="white" />
              <path d="M-1.7193e-06 2.65024e-08H7.57746V24.9135H21.1408V30.7771H0.0140879V2.65024e-08H-1.7193e-06Z" transform="translate(156 8.5976)"
                fill="white" />
              <path d="M18.4225 30.7633L12.2535 20.1615H7.57747V30.7633H-3.4386e-06V2.65024e-08H15.1972C18.7746 2.65024e-08 21.5493 0.819798 23.5211 2.4455C25.4789 4.0712 26.4648 6.5028 26.4648 9.72641C26.4648 11.7273 25.9014 13.5753 24.7746 15.2844C23.6479 16.9934 22.0986 18.1328 20.0986 18.7164L28.0422 30.7494H18.4225V30.7633ZM18.2817 10.1016C18.2817 8.6843 17.9437 7.61439 17.2535 6.87796C16.5634 6.14153 15.5634 5.76637 14.2676 5.76637H7.57747V14.673H13.9296C16.831 14.673 18.2817 13.1446 18.2817 10.1016Z"
                transform="translate(181.958 8.5976)" fill="white" />
            </svg>