            <svg width="832" height="778" viewBox="0 0 832 778" fill="none" xmlns="http://www.w3.org/2000/svg">
              <circle cx="119" cy="119" r="119" transform="translate(593 305)" fill="#0D6D87" />
              <circle cx="39.5" cy="39.5" r="39.5" transform="translate(414 503)" fill="#25D0FF" />
              <g filter="url(#filter0_d)">
                <rect width="679.68" height="389.76" transform="translate(20.3461 65.2874)" fill="#2A2A2A" />
                <rect width="318.462" height="13.2873" rx="6.64364" transform="translate(204.641 401.898)" fill="#3B3B3B" />
                <rect width="132.692" height="348.422" transform="translate(567.333 66.7635)" fill="#201E1E" />
                <rect width="132.692" height="348.422" transform="translate(23.9234 61)" fill="#201E1E" />
                <rect width="132.692" height="26.5745" transform="translate(23.2951 66.7637)" fill="#2F2F2F" />
                <rect width="133.31" height="26.5745" transform="translate(23.2951 269.025)" fill="#2F2F2F" />
                <rect width="89" height="6" transform="translate(57.9234 75)" fill="#848484" />
                <rect width="88" height="6" transform="translate(57.9234 101)" fill="#848484" />
                <rect width="88" height="6" transform="translate(57.9234 279.313)" fill="#848484" />
                <rect width="50" height="3" transform="translate(57.9234 114)" fill="#848484" />
                <rect width="32" height="3" transform="translate(57.9234 84)" fill="#848484" />
                <rect width="45" height="3" transform="translate(100.923 84)" fill="#848484" />
                <rect width="28.0128" height="348.422" transform="translate(21.8207 63.8109)" fill="#3A3A3A" />
                <rect width="132.692" height="32.48" transform="translate(567.333 66.7635)" fill="#2F2F2F" />
                <rect width="132.692" height="32.48" transform="translate(567.333 376.8)" fill="#555555" />
                <rect width="104.679" height="10.3345" transform="translate(567.333 398.946)" fill="#252525" />
                <rect width="28.0128" height="32.48" transform="translate(672.013 376.8)" fill="#25CEFF" />
                <rect width="88.4615" height="6" transform="translate(588.92 77.0035)" fill="#848484" />
                <path fill-rule="evenodd" clip-rule="evenodd" d="M0 0H19.2692V2.95276H0V0ZM26.5386 0.000732422L72.244 0.00012207H107.629V2.95288L79.9165 2.95349H26.5386V0.000732422ZM0 14.2551H19.2692V17.2079H0V14.2551ZM72.244 14.2552L26.5386 14.2559V17.2086H79.9165L107.629 17.208V14.2552H72.244ZM19.2692 28.5105H0V31.4633H19.2692V28.5105ZM26.5386 28.5112L72.244 28.5106H107.629V31.4634L79.9165 31.464H26.5386V28.5112ZM0 42.7659H19.2692V45.7186H0V42.7659ZM72.244 42.766L26.5386 42.7666V45.7194H79.9165L107.629 45.7188V42.766H72.244ZM19.2692 57.0212H0V59.974H19.2692V57.0212ZM26.5386 57.022L72.244 57.0214H107.629V59.9741L79.9165 59.9747H26.5386V57.022ZM0 71.2766H19.2692V74.2294H0V71.2766ZM72.244 71.2767L26.5386 71.2773V74.2301H79.9165L107.629 74.2295V71.2767H72.244ZM19.2692 85.532H0V88.4847H19.2692V85.532ZM26.5386 85.5327L72.244 85.5321H107.629V88.4849L79.9165 88.4855H26.5386V85.5327ZM0 99.7874H19.2692V102.74H0V99.7874ZM72.244 99.7875L26.5386 99.7881V102.741H79.9165L107.629 102.74V99.7875H72.244ZM19.2692 114.043H0V116.995H19.2692V114.043ZM26.5386 114.043L72.244 114.043H107.629V116.996L79.9165 116.996H26.5386V114.043Z"
                  transform="translate(579.923 114.476)" fill="#848484" />
                <rect width="50.1282" height="3" transform="translate(571.756 382.706)" fill="#848484" />
                <rect width="28.0128" height="3" transform="translate(632.205 382.706)" fill="#848484" />
                <rect width="28.0128" height="3" transform="translate(571.756 390.087)" fill="#848484" />
                <rect width="47.1795" height="3" transform="translate(612.923 390)" fill="#848484" />
                <path d="M0 0H678.205V41.3382H0V0Z" transform="translate(21.8207 410.756)" fill="#141414" />
                <rect width="25" height="3" transform="translate(65.4871 428.382)" fill="#848484" />
                <rect width="25" height="3" transform="translate(113.487 434.763)" fill="#848484" />
                <path d="M0 0H678.205V2.95273H0V0Z" transform="translate(21.8207 409.28)" fill="#C4C4C4" />
                <rect width="252.115" height="2.95273" transform="translate(21.8207 409.28)" fill="#25CEFF" />
                <rect width="318.462" height="13.2873" rx="6.64364" transform="translate(204.641 269.025)" fill="#3B3B3B" />
                <rect width="318.462" height="13.2873" rx="6.64364" transform="translate(204.641 282.313)" fill="#3B3B3B" fill-opacity="0.57"
                />
                <rect width="318.462" height="13.2873" rx="6.64364" transform="translate(204.641 295.6)" fill="#3B3B3B" />
                <rect width="318.462" height="13.2873" rx="6.64364" transform="translate(204.641 308.887)" fill="#3B3B3B" fill-opacity="0.57"
                />
                <rect width="318.462" height="13.2873" rx="6.64364" transform="translate(204.641 322.175)" fill="#3B3B3B" />
                <rect width="318.462" height="13.2873" rx="6.64364" transform="translate(204.641 335.462)" fill="#3B3B3B" fill-opacity="0.57"
                />
                <rect width="318.462" height="13.2873" rx="6.64364" transform="translate(204.641 348.749)" fill="#3B3B3B" />
                <rect width="318.462" height="13.2873" rx="6.64364" transform="translate(204.641 362.036)" fill="#3B3B3B" fill-opacity="0.57"
                />
                <rect width="318.462" height="13.2873" rx="6.64364" transform="translate(204.641 375.324)" fill="#3B3B3B" />
                <rect width="318.462" height="13.2873" rx="6.64364" transform="translate(204.641 388.611)" fill="#3B3B3B" fill-opacity="0.57"
                />
                <rect width="117.949" height="6" transform="translate(304.898 207.018)" fill="#4F4F4F" />
                <rect width="58.9744" height="6" transform="translate(204.641 229.164)" fill="#4F4F4F" />
                <path d="M0 0H29.4872V6H0V0Z" transform="translate(204.641 255.738)" fill="#4F4F4F" />
                <path d="M0 0H29.4872V6H0V0Z" transform="translate(276.885 255.738)" fill="#4F4F4F" />
                <path d="M0 0H29.4872V6H0V0Z" transform="translate(349.129 255.738)" fill="#4F4F4F" />
                <path d="M0 0H29.4872V6H0V0Z" transform="translate(421.372 255.738)" fill="#4F4F4F" />
                <path d="M0 0H29.4872V6H0V0Z" transform="translate(493.616 255.738)" fill="#4F4F4F" />
                <rect width="58.9744" height="6" transform="translate(291.137 229.164)" fill="#4F4F4F" />
                <rect width="58.9744" height="6" transform="translate(377.632 229.164)" fill="#4F4F4F" />
                <rect width="58.9744" height="6" transform="translate(464.128 229.164)" fill="#4F4F4F" />
                <ellipse cx="41.282" cy="41.3382" rx="41.282" ry="41.3382" transform="translate(322.59 103.673)" fill="#484848" />
                <ellipse cx="9.64852" cy="9.66164" rx="9.64852" ry="9.66164" transform="translate(349.8 421.764)" fill="#848484" />
                <path fill-rule="evenodd" clip-rule="evenodd" d="M2.11667 7.81165L12.9695 13.9708V0L2.11667 6.15906V0.956543H0V12.9563H2.11667V7.81165Z"
                  transform="translate(323 424.044)" fill="#F0F0F0" />
                <path fill-rule="evenodd" clip-rule="evenodd" d="M2.11667 7.81628L12.9613 13.9708V0L2.11667 6.15442V1.01465H0V13.0144H2.11667V7.81628Z"
                  transform="translate(396 438.014) rotate(-180)" fill="#F0F0F0" />
                <rect width="26.5385" height="26.5745" transform="translate(36 419)" fill="#4F4F4F" />
                <rect width="73.7179" height="6" transform="translate(65.4871 419)" fill="#848484" />
                <rect width="40" height="3" transform="translate(65.4871 434.763)" fill="#848484" />
                <rect width="40" height="3" transform="translate(98.4871 428.382)" fill="#848484" />
                <rect width="8" height="9" transform="translate(259.923 427)" fill="#848484" />
                <rect width="8" height="9" transform="translate(270.616 427)" fill="#848484" />
                <rect width="2.94872" height="2.95273" transform="translate(281.308 426.996)" fill="#848484" />
                <path d="M0 0H2.94872V2.95273H0V0Z" transform="translate(281.308 432.902)" fill="#848484" />
                <rect width="18" height="18" transform="translate(27.7182 74.1455)" fill="#848484" />
                <rect width="10.3205" height="8.85818" transform="translate(31.6667 99.7673)" fill="#848484" />
                <rect width="10.3205" height="8.85818" transform="translate(31.6667 116.007)" fill="#848484" />
                <rect width="10.3205" height="8.85818" transform="translate(31.6667 132.247)" fill="#848484" />
                <rect width="10.3205" height="8.85818" transform="translate(31.6667 148.487)" fill="#848484" />
                <path fill-rule="evenodd" clip-rule="evenodd" d="M690 5C690 2.23858 687.761 0 685 0H5C2.23858 0 0 2.23858 0 5V8.85815V14.7637V401C0 403.761 2.23858 406 5 406H685C687.761 406 690 403.761 690 401V14.7637V8.85815V5ZM684.103 19.7635C684.103 17.0021 681.864 14.7635 679.103 14.7635H10.8974C8.13601 14.7635 5.89744 17.0021 5.89744 19.7635V395.094C5.89744 397.856 8.13601 400.094 10.8974 400.094H679.103C681.864 400.094 684.103 397.856 684.103 395.094V19.7635Z"
                  transform="translate(15.9234 52)" fill="#F9F9F9" />
                <rect width="8" height="9" transform="translate(287 427)" fill="#848484" />
                <rect width="8" height="9" transform="translate(297.692 427)" fill="#848484" />
                <rect width="8" height="9" transform="translate(411.647 426.531)" fill="#848484" />
                <rect width="8" height="9" transform="translate(422.34 426.531)" fill="#848484" />
                <rect width="2.94872" height="2.95273" transform="translate(433.032 426.527)" fill="#848484" />
                <path d="M0 0H2.94872V2.95273H0V0Z" transform="translate(433.032 432.433)" fill="#848484" />
                <rect width="8" height="9" transform="translate(438.724 426.531)" fill="#848484" />
                <rect width="8" height="9" transform="translate(449.416 426.531)" fill="#848484" />
                <rect width="8" height="8.24998" rx="4" transform="translate(52.6734 63) rotate(-90)" fill="#00DE24" />
                <rect width="8" height="8.24998" rx="4" transform="translate(40.2985 63) rotate(-90)" fill="#F5D520" />
                <rect width="8" height="8.24998" rx="4" transform="translate(27.9234 63) rotate(-90)" fill="#DE0000" />
              </g>
              <circle cx="99" cy="99" r="99" transform="translate(634)" fill="#25D0FF" />
              <circle cx="57" cy="57" r="57" transform="translate(584 664)" fill="#009FCC" />
              <circle cx="50.5" cy="50.5" r="50.5" transform="translate(526 436)" fill="#96C4D0" />
              <defs>
                <filter id="filter0_d" x="0.923401" y="43" width="720" height="436" filterUnits="userSpaceOnUse" color-interpolation-filters="sRGB">
                  <feFlood flood-opacity="0" result="BackgroundImageFix" />
                  <feColorMatrix in="SourceAlpha" type="matrix" values="0 0 0 0 0 0 0 0 0 0 0 0 0 0 0 0 0 0 255 0" />
                  <feOffset dy="6" />
                  <feGaussianBlur stdDeviation="7.5" />
                  <feColorMatrix type="matrix" values="0 0 0 0 0 0 0 0 0 0 0 0 0 0 0 0 0 0 0.6 0" />
                  <feBlend mode="normal" in2="BackgroundImageFix" result="effect1_dropShadow" />
                  <feBlend mode="normal" in="SourceGraphic" in2="effect1_dropShadow" result="shape" />
                </filter>
              </defs>
            </svg>
